

<svg xmlns="http://www.w3.org/2000/svg"
     xmlns:xlink="http://www.w3.org/1999/xlink" viewBox="0 0 4 6">
                                        <rect x="0" y="0" height="1" width="1" fill="rgb(75, 114, 184)"/>
                                                <rect x="1" y="0" height="1" width="1" fill="rgb(75, 114, 184)"/>
                                                <rect x="2" y="0" height="1" width="1" fill="rgb(247, 9, 126)"/>
                                                <rect x="3" y="0" height="1" width="1" fill="rgb(123, 172, 76)"/>
                                                <rect x="4" y="0" height="1" width="1" fill="rgb(123, 172, 76)"/>
                                                            <rect x="0" y="1" height="1" width="1" fill="rgb(75, 114, 184)"/>
                                                <rect x="1" y="1" height="1" width="1" fill="rgb(238, 220, 124)"/>
                                                <rect x="2" y="1" height="1" width="1" fill="rgb(247, 9, 126)"/>
                                                <rect x="3" y="1" height="1" width="1" fill="rgb(75, 114, 184)"/>
                                                <rect x="4" y="1" height="1" width="1" fill="rgb(120, 222, 131)"/>
                                                            <rect x="0" y="2" height="1" width="1" fill="rgb(238, 220, 124)"/>
                                                <rect x="1" y="2" height="1" width="1" fill="rgb(24, 125, 250)"/>
                                                <rect x="2" y="2" height="1" width="1" fill="rgb(238, 220, 124)"/>
                                                <rect x="3" y="2" height="1" width="1" fill="rgb(238, 220, 124)"/>
                                                <rect x="4" y="2" height="1" width="1" fill="rgb(123, 172, 76)"/>
                                                            <rect x="0" y="3" height="1" width="1" fill="rgb(75, 114, 184)"/>
                                                <rect x="1" y="3" height="1" width="1" fill="rgb(238, 220, 124)"/>
                                                <rect x="2" y="3" height="1" width="1" fill="rgb(247, 9, 126)"/>
                                                <rect x="3" y="3" height="1" width="1" fill="rgb(75, 114, 184)"/>
                                                <rect x="4" y="3" height="1" width="1" fill="rgb(120, 222, 131)"/>
                                                            <rect x="0" y="4" height="1" width="1" fill="rgb(75, 114, 184)"/>
                                                <rect x="1" y="4" height="1" width="1" fill="rgb(75, 114, 184)"/>
                                                <rect x="2" y="4" height="1" width="1" fill="rgb(247, 9, 126)"/>
                                                <rect x="3" y="4" height="1" width="1" fill="rgb(123, 172, 76)"/>
                                                <rect x="4" y="4" height="1" width="1" fill="rgb(123, 172, 76)"/>
                        </svg>
