

<svg xmlns="http://www.w3.org/2000/svg"
     xmlns:xlink="http://www.w3.org/1999/xlink" viewBox="0 0 4 6">
                                        <rect x="0" y="0" height="1" width="1" fill="rgb(144, 110, 185)"/>
                                                <rect x="1" y="0" height="1" width="1" fill="rgb(169, 43, 170)"/>
                                                <rect x="2" y="0" height="1" width="1" fill="rgb(144, 110, 185)"/>
                                                <rect x="3" y="0" height="1" width="1" fill="rgb(144, 110, 185)"/>
                                                <rect x="4" y="0" height="1" width="1" fill="rgb(140, 20, 158)"/>
                                                            <rect x="0" y="1" height="1" width="1" fill="rgb(253, 82, 29)"/>
                                                <rect x="1" y="1" height="1" width="1" fill="rgb(43, 141, 129)"/>
                                                <rect x="2" y="1" height="1" width="1" fill="rgb(43, 141, 129)"/>
                                                <rect x="3" y="1" height="1" width="1" fill="rgb(43, 141, 129)"/>
                                                <rect x="4" y="1" height="1" width="1" fill="rgb(244, 3, 3)"/>
                                                            <rect x="0" y="2" height="1" width="1" fill="rgb(43, 141, 129)"/>
                                                <rect x="1" y="2" height="1" width="1" fill="rgb(43, 141, 129)"/>
                                                <rect x="2" y="2" height="1" width="1" fill="rgb(177, 187, 0)"/>
                                                <rect x="3" y="2" height="1" width="1" fill="rgb(140, 20, 158)"/>
                                                <rect x="4" y="2" height="1" width="1" fill="rgb(244, 3, 3)"/>
                                                            <rect x="0" y="3" height="1" width="1" fill="rgb(253, 82, 29)"/>
                                                <rect x="1" y="3" height="1" width="1" fill="rgb(43, 141, 129)"/>
                                                <rect x="2" y="3" height="1" width="1" fill="rgb(43, 141, 129)"/>
                                                <rect x="3" y="3" height="1" width="1" fill="rgb(43, 141, 129)"/>
                                                <rect x="4" y="3" height="1" width="1" fill="rgb(244, 3, 3)"/>
                                                            <rect x="0" y="4" height="1" width="1" fill="rgb(144, 110, 185)"/>
                                                <rect x="1" y="4" height="1" width="1" fill="rgb(169, 43, 170)"/>
                                                <rect x="2" y="4" height="1" width="1" fill="rgb(144, 110, 185)"/>
                                                <rect x="3" y="4" height="1" width="1" fill="rgb(144, 110, 185)"/>
                                                <rect x="4" y="4" height="1" width="1" fill="rgb(140, 20, 158)"/>
                        </svg>
