

<svg xmlns="http://www.w3.org/2000/svg"
     xmlns:xlink="http://www.w3.org/1999/xlink" viewBox="0 0 4 6">
                                        <rect x="0" y="0" height="1" width="1" fill="rgb(177, 117, 108)"/>
                                                <rect x="1" y="0" height="1" width="1" fill="rgb(201, 34, 6)"/>
                                                <rect x="2" y="0" height="1" width="1" fill="rgb(196, 181, 42)"/>
                                                <rect x="3" y="0" height="1" width="1" fill="rgb(196, 181, 42)"/>
                                                <rect x="4" y="0" height="1" width="1" fill="rgb(244, 219, 10)"/>
                                                            <rect x="0" y="1" height="1" width="1" fill="rgb(213, 170, 78)"/>
                                                <rect x="1" y="1" height="1" width="1" fill="rgb(177, 117, 108)"/>
                                                <rect x="2" y="1" height="1" width="1" fill="rgb(201, 34, 6)"/>
                                                <rect x="3" y="1" height="1" width="1" fill="rgb(164, 198, 160)"/>
                                                <rect x="4" y="1" height="1" width="1" fill="rgb(213, 170, 78)"/>
                                                            <rect x="0" y="2" height="1" width="1" fill="rgb(177, 117, 108)"/>
                                                <rect x="1" y="2" height="1" width="1" fill="rgb(164, 198, 160)"/>
                                                <rect x="2" y="2" height="1" width="1" fill="rgb(57, 98, 225)"/>
                                                <rect x="3" y="2" height="1" width="1" fill="rgb(57, 98, 225)"/>
                                                <rect x="4" y="2" height="1" width="1" fill="rgb(244, 219, 10)"/>
                                                            <rect x="0" y="3" height="1" width="1" fill="rgb(213, 170, 78)"/>
                                                <rect x="1" y="3" height="1" width="1" fill="rgb(177, 117, 108)"/>
                                                <rect x="2" y="3" height="1" width="1" fill="rgb(201, 34, 6)"/>
                                                <rect x="3" y="3" height="1" width="1" fill="rgb(164, 198, 160)"/>
                                                <rect x="4" y="3" height="1" width="1" fill="rgb(213, 170, 78)"/>
                                                            <rect x="0" y="4" height="1" width="1" fill="rgb(177, 117, 108)"/>
                                                <rect x="1" y="4" height="1" width="1" fill="rgb(201, 34, 6)"/>
                                                <rect x="2" y="4" height="1" width="1" fill="rgb(196, 181, 42)"/>
                                                <rect x="3" y="4" height="1" width="1" fill="rgb(196, 181, 42)"/>
                                                <rect x="4" y="4" height="1" width="1" fill="rgb(244, 219, 10)"/>
                        </svg>
